<svg
  width="75"
  height="43"
  viewBox="0 0 1752 971"
  fill="none"
  xmlns="http://www.w3.org/2000/svg"
>
  <path
    d="M1159.33 136.087C1294.16 212.048 1636.22 266.191 1751.33 205.976C1710.22 292.31 1397.78 386.865 1031.89 238.865C774.475 134.743 448.111 111.42 82.2222 374.532C308.333 -135.246 867.445 -28.3581 1159.33 136.087Z"
    fill="#D56526"
  />
  <path
    d="M859.222 814.421C1105.89 814.421 1342.96 648.606 1360.78 580.087C1308.16 915.554 923.955 1013.69 703 954.199C382.333 867.865 361.778 732.199 0 658.199C271.333 580.087 612.556 814.421 859.222 814.421Z"
    fill="#D56526"
  />
  <path
    d="M740 205.556C814.759 205.556 882.664 234.901 932.825 282.701C925.08 280.65 916.946 279.556 908.556 279.556C858.628 279.556 817.739 318.252 814.243 367.289C792.731 353.38 767.279 345.334 740 345.334C662.803 345.334 600.223 409.755 600.223 489.223C600.223 568.69 662.803 633.111 740 633.111C817.197 633.111 879.777 568.69 879.777 489.223C879.777 480.429 879.009 471.819 877.541 463.461C887.257 466.833 897.692 468.667 908.556 468.667C956.146 468.667 995.523 433.508 1002.13 387.748C1013.4 418.067 1019.56 450.87 1019.56 485.111C1019.56 639.506 894.394 764.667 740 764.667C585.606 764.667 460.444 639.506 460.444 485.111C460.444 330.717 585.606 205.556 740 205.556Z"
    fill="black"
  />
</svg>
